<?xml version="1.0" encoding="UTF-8"?>
<!DOCTYPE svg PUBLIC "-//W3C//DTD SVG 1.0//EN" "http://www.w3.org/TR/2001/REC-SVG-20010904/DTD/svg10.dtd">
<!-- Creator: CorelDRAW 2017 -->
<svg xmlns="http://www.w3.org/2000/svg" xml:space="preserve" width="356px" height="200px" version="1.0" shape-rendering="geometricPrecision" text-rendering="geometricPrecision" image-rendering="optimizeQuality" fill-rule="evenodd" clip-rule="evenodd"
viewBox="0 0 35600 20025"
 xmlns:xlink="http://www.w3.org/1999/xlink">
 <g id="Layer_x0020_1">
  <metadata id="CorelCorpID_0Corel-Layer"/>
  <g id="_1624861738224">
   <polygon fill="#E6E7E8" points="0,0 35600,0 35600,20025 0,20025 "/>
   <polygon fill="#373435" fill-opacity="0.078431" points="21508,11695 15471,16907 15317,16846 14988,16698 14668,16534 14358,16355 14057,16162 13912,16060 24813,6648 21508,8330 21386,8109 21249,7898 21099,7697 20936,7506 20761,7328 20573,7161 20375,7007 20167,6866 19949,6740 19721,6628 19486,6532 19242,6452 18992,6388 18735,6342 18472,6314 18204,6304 17825,6323 17456,6379 17101,6471 16760,6595 16436,6752 16130,6937 15845,7151 10919,11404 10873,11142 10825,10771 10797,10394 10787,10012 10797,9631 10825,9254 10873,8883 10938,8518 11021,8159 11121,7807 11237,7462 11370,7126 11518,6797 11682,6477 11861,6167 12054,5866 12261,5575 12481,5295 12714,5026 12959,4768 13217,4522 0,15934 0,19326 0,20025 935,20025 2313,20025 7964,20025 9320,20025 11861,20025 12280,20025 15198,20025 17952,20025 22943,15716 22748,15873 22547,16024 22341,16167 22130,16305 21914,16435 21694,16557 21469,16673 21239,16781 21005,16881 20768,16974 20526,17058 20281,17134 20032,17202 19780,17261 19524,17312 19266,17354 19004,17386 18740,17410 18473,17424 18204,17429 17822,17419 17445,17391 17074,17344 16709,17278 16350,17196 15998,17096 15764,17016 20573,12864 20761,12697 20936,12518 21099,12328 21249,12127 21386,11915 21508,11695 "/>
   <path fill="#D81B60" fill-rule="nonzero" d="M21508 11695c-613,1202 -1862,2026 -3304,2026 -2048,0 -3709,-1661 -3709,-3709 0,-2048 1661,-3708 3709,-3708 1442,0 2691,824 3304,2026l3305 -1682c-1227,-2405 -3725,-4052 -6609,-4052 -4096,0 -7417,3320 -7417,7416 0,4097 3321,7417 7417,7417 2884,0 5382,-1648 6609,-4052l-3305 -1682 0 0z"/>
   <path fill="#373435" fill-opacity="0.031373" d="M2082 17547c68,103 112,202 156,312 31,63 48,183 199,183 43,0 106,-14 162,-45 63,-33 112,-83 136,-159l61 -202 145 -72 10 10c-20,76 -24,148 -24,206 0,169 145,233 262,233 68,0 128,-33 128,-95 0,-80 -34,-216 -77,-338 67,-68 135,-136 213,-192l12 7c34,144 54,286 54,381 0,93 -42,196 -76,264 -70,132 -194,237 -344,237 -114,0 -240,-58 -328,-163l-5 0c-82,101 -208,194 -412,194l-63 0c-10,134 -39,229 -83,314 -121,237 -480,404 -817,404 -471,0 -706,-272 -706,-633 0,-223 72,-431 184,-578l92 37c-70,134 -116,262 -116,386 0,338 274,499 592,499 293,0 657,-188 723,-404 -24,-237 -114,-349 -250,-565 41,-72 95,-145 160,-221l12 0 0 0zm5421 -1275c99,62 197,137 291,221 -53,74 -119,143 -201,202 -95,-76 -189,-142 -287,-212 66,-74 131,-147 197,-211l0 0zm51 927c-160,0 -291,105 -291,183 0,167 320,219 703,217 -48,-196 -216,-400 -412,-400zm-359 895c209,0 391,-7 529,-42 155,-39 286,-117 286,-171 0,-14 0,-31 -5,-45 -87,8 -187,8 -274,8 -281,0 -497,-64 -582,-223 -22,-43 -37,-93 -37,-148 0,-153 66,-303 182,-406 97,-85 204,-139 313,-139 197,0 355,159 464,409 60,136 102,293 102,491 0,132 -37,243 -119,325 -153,149 -435,205 -866,205l-197 0 0 0 -51 0c-107,0 -184,-19 -245,-66l-10 0c3,24 5,49 5,72 0,97 -31,220 -97,319 -192,287 -400,411 -580,411 -182,0 -405,-70 -606,-161l36 -70c66,27 155,45 279,45 325,0 752,-313 806,-619 -12,-24 -34,-57 -66,-92 -95,-114 -155,-209 -211,-308 49,-94 92,-171 134,-239l16 -2c139,283 265,446 546,446l44 0 0 0 204 0 0 0zm-1408 299c24,-130 27,-277 27,-413l0 -202c0,-377 -49,-926 -88,-1283 68,-74 163,-161 238,-218l22 6c51,449 63,971 63,1452 0,126 -5,249 -17,340 -7,113 -73,200 -213,332l-32 -14 0 0zm-1449 -596c7,177 95,317 398,317 189,0 349,-49 526,-134 32,-14 49,-33 49,-49 0,-112 -85,-258 -228,-392 -138,-126 -323,-237 -495,-312 -58,-24 -78,-51 -78,-76 0,-51 68,-159 124,-235l19 -2c197,103 418,256 580,427 148,157 240,315 240,489 0,128 -38,249 -101,360 -216,110 -447,192 -675,192 -276,0 -466,-130 -466,-435 0,-33 0,-84 12,-150l95 0zm-501 -504l173 279c63,103 121,214 121,392l0 226c0,184 -116,380 -306,574 -148,132 -279,187 -400,187 -180,0 -386,-55 -624,-158l27 -70c75,20 163,37 269,37 342,-2 692,-252 852,-557 19,-35 27,-68 27,-91 0,-35 -20,-74 -34,-109 -88,-165 -185,-316 -291,-454 55,-89 111,-173 172,-258l14 2 0 0z"/>
   <path fill="#EC407A" d="M14496 10096l-3708 0c0,-28 -1,-56 -1,-84 0,-4096 3321,-7416 7417,-7416 2884,0 5382,1647 6609,4052l-3305 1682c-613,-1202 -1862,-2026 -3304,-2026 -2048,0 -3709,1660 -3709,3708 0,28 1,56 1,84z"/>
  </g>
 </g>
</svg>
